<svg width="248" height="26" viewBox="0 0 248 26" fill="none" xmlns="http://www.w3.org/2000/svg">
<path d="M5.73047 0V25.5938H0V0H5.73047ZM15.8027 10.793V15.2227H4.13086V10.793H15.8027ZM16.9277 0V4.44727H4.13086V0H16.9277ZM40.9324 0H46.6629V16.8047C46.6629 18.7969 46.241 20.4727 45.3973 21.832C44.5652 23.1914 43.4051 24.2168 41.9168 24.9082C40.4285 25.5996 38.7059 25.9453 36.7488 25.9453C34.7801 25.9453 33.0457 25.5996 31.5457 24.9082C30.0574 24.2168 28.8855 23.1914 28.0301 21.832C27.1863 20.4727 26.7645 18.7969 26.7645 16.8047V0H32.5125V16.8047C32.5125 17.9062 32.6766 18.8086 33.0047 19.5117C33.3445 20.2031 33.8309 20.7129 34.4637 21.041C35.0965 21.3574 35.8582 21.5156 36.7488 21.5156C37.6395 21.5156 38.3953 21.3574 39.0164 21.041C39.6492 20.7129 40.1238 20.2031 40.4402 19.5117C40.7684 18.8086 40.9324 17.9062 40.9324 16.8047V0ZM57.9586 0H67.7848C69.7418 0 71.4352 0.292969 72.8648 0.878906C74.3063 1.46484 75.4137 2.33203 76.1871 3.48047C76.9605 4.62891 77.3473 6.04688 77.3473 7.73438C77.3473 9.14062 77.1188 10.3359 76.6617 11.3203C76.2047 12.3047 75.5602 13.1191 74.7281 13.7637C73.9078 14.4082 72.9469 14.9297 71.8453 15.3281L69.982 16.3477H61.6148L61.5797 11.9004H67.8023C68.6578 11.9004 69.3668 11.748 69.9293 11.4434C70.4918 11.1387 70.9137 10.7109 71.1949 10.1602C71.4879 9.59766 71.6344 8.94141 71.6344 8.19141C71.6344 7.41797 71.4879 6.75 71.1949 6.1875C70.902 5.625 70.4684 5.19727 69.8941 4.9043C69.3316 4.59961 68.6285 4.44727 67.7848 4.44727H63.6891V25.5938H57.9586V0ZM72.1266 25.5938L66.3785 14.2207L72.4254 14.2031L78.2613 25.3301V25.5938H72.1266ZM109.543 0V25.5938H103.83L94.1625 9.05273V25.5938H88.432V0H94.1625L103.848 16.541V0H109.543ZM127.079 0V25.5938H121.366V0H127.079ZM150.293 0V25.5938H144.58V0H150.293ZM158.08 0V4.44727H136.951V0H158.08ZM182.12 0H187.85V16.8047C187.85 18.7969 187.429 20.4727 186.585 21.832C185.753 23.1914 184.593 24.2168 183.104 24.9082C181.616 25.5996 179.893 25.9453 177.936 25.9453C175.968 25.9453 174.233 25.5996 172.733 24.9082C171.245 24.2168 170.073 23.1914 169.218 21.832C168.374 20.4727 167.952 18.7969 167.952 16.8047V0H173.7V16.8047C173.7 17.9062 173.864 18.8086 174.192 19.5117C174.532 20.2031 175.018 20.7129 175.651 21.041C176.284 21.3574 177.046 21.5156 177.936 21.5156C178.827 21.5156 179.583 21.3574 180.204 21.041C180.837 20.7129 181.311 20.2031 181.628 19.5117C181.956 18.8086 182.12 17.9062 182.12 16.8047V0ZM199.146 0H208.972C210.929 0 212.623 0.292969 214.052 0.878906C215.494 1.46484 216.601 2.33203 217.375 3.48047C218.148 4.62891 218.535 6.04688 218.535 7.73438C218.535 9.14062 218.306 10.3359 217.849 11.3203C217.392 12.3047 216.748 13.1191 215.916 13.7637C215.095 14.4082 214.134 14.9297 213.033 15.3281L211.17 16.3477H202.802L202.767 11.9004H208.99C209.845 11.9004 210.554 11.748 211.117 11.4434C211.679 11.1387 212.101 10.7109 212.382 10.1602C212.675 9.59766 212.822 8.94141 212.822 8.19141C212.822 7.41797 212.675 6.75 212.382 6.1875C212.089 5.625 211.656 5.19727 211.082 4.9043C210.519 4.59961 209.816 4.44727 208.972 4.44727H204.877V25.5938H199.146V0ZM213.314 25.5938L207.566 14.2207L213.613 14.2031L219.449 25.3301V25.5938H213.314ZM247.022 21.1641V25.5938H233.399V21.1641H247.022ZM235.35 0V25.5938H229.62V0H235.35ZM245.264 10.3008V14.5898H233.399V10.3008H245.264ZM247.039 0V4.44727H233.399V0H247.039Z" fill="#4CAF50"/>
</svg>
