<svg width="30" height="30" viewBox="0 0 30 30" fill="none" xmlns="http://www.w3.org/2000/svg">
<path d="M16.7501 14.1125C16.8673 14.2287 16.9603 14.3669 17.0237 14.5193C17.0872 14.6716 17.1199 14.835 17.1199 15C17.1199 15.165 17.0872 15.3284 17.0237 15.4807C16.9603 15.633 16.8673 15.7713 16.7501 15.8875L11.0126 21.6125C10.8955 21.7287 10.8025 21.8669 10.739 22.0193C10.6755 22.1716 10.6429 22.335 10.6429 22.5C10.6429 22.665 10.6755 22.8284 10.739 22.9807C10.8025 23.133 10.8955 23.2713 11.0126 23.3875C11.2468 23.6203 11.5636 23.751 11.8939 23.751C12.2241 23.751 12.5409 23.6203 12.7751 23.3875L18.5126 17.65C19.2149 16.9469 19.6093 15.9937 19.6093 15C19.6093 14.0062 19.2149 13.0531 18.5126 12.35L12.7751 6.61249C12.5423 6.38156 12.228 6.25137 11.9001 6.24999C11.7356 6.24904 11.5725 6.28057 11.4202 6.34277C11.2679 6.40498 11.1294 6.49664 11.0126 6.61249C10.8955 6.72869 10.8025 6.86694 10.739 7.01927C10.6755 7.17159 10.6429 7.33497 10.6429 7.49999C10.6429 7.665 10.6755 7.82838 10.739 7.98071C10.8025 8.13303 10.8955 8.27128 11.0126 8.38749L16.7501 14.1125Z" fill="#4CAF50"/>
</svg>
